<?xml version="1.0" encoding="UTF-8"?>
<svg width="28px" height="25px" viewBox="0 0 28 25" version="1.1" xmlns="http://www.w3.org/2000/svg" xmlns:xlink="http://www.w3.org/1999/xlink">
    <!-- Generator: Sketch 59.1 (86144) - https://sketch.com -->
    <title>noun_History_11143</title>
    <desc>Created with Sketch.</desc>
    <g id="Page-1" stroke="none" stroke-width="1" fill="none" fill-rule="evenodd">
        <g id="single-page-git" transform="translate(-867.000000, -382.000000)" fill="#000000" fill-rule="nonzero">
            <g id="noun_History_11143" transform="translate(867.000000, 382.000000)">
                <path d="M19.7955357,12.2991071 L15.9389881,12.2982143 L15.9389881,5.68511905 C15.9389881,5.14672619 15.502381,4.71160714 14.9654762,4.71160714 C14.4285714,4.71160714 13.9919643,5.14702381 13.9919643,5.68511905 L13.9919643,13.2720238 C13.9919643,13.810119 14.4285714,14.2455357 14.9654762,14.2455357 L14.9654762,14.2455357 L14.9669643,14.2455357 L19.7952381,14.2455357 C20.3324405,14.2455357 20.7684524,13.810119 20.7684524,13.2723214 C20.7681548,12.7354167 20.3321429,12.2991071 19.7955357,12.2991071 Z" id="Path"></path>
                <path d="M24.2407738,3.70982143 C19.396131,-1.13482143 11.5127976,-1.13482143 6.66666667,3.70982143 C4.52857143,5.8485119 3.26011905,8.64791667 3.05654762,11.6464286 L1.79047619,10.2830357 C1.42410714,9.88958333 0.807142857,9.86607143 0.413392857,10.2318452 C0.01875,10.5982143 -0.00386904762,11.2151786 0.362202381,11.6098214 L3.18214286,14.646131 C3.37410714,14.8526786 3.63482143,14.9574405 3.89642857,14.9574405 C4.13363095,14.9574405 4.37142857,14.8714286 4.55922619,14.6973214 L7.59642857,11.8770833 C7.99107143,11.5107143 8.01369048,10.89375 7.64761905,10.4997024 C7.28154762,10.1053571 6.66458333,10.0815476 6.2702381,10.4485119 L5.025,11.6044643 C5.23333333,9.14345238 6.28452381,6.84910714 8.04494048,5.08779762 C12.1303571,1.00297619 18.777381,1.00297619 22.8625,5.08779762 C26.9473214,9.17291667 26.9473214,15.8205357 22.8625,19.9056548 C20.8839286,21.8845238 18.2526786,22.9744048 15.4535714,22.9744048 C12.6559524,22.9744048 10.0247024,21.8848214 8.04494048,19.9056548 C7.6639881,19.525 7.04672619,19.525 6.66636905,19.9056548 C6.2860119,20.2863095 6.2860119,20.903869 6.66666667,21.2839286 C9.01488095,23.63125 12.1354167,24.9235119 15.4535714,24.9235119 C18.7729167,24.9235119 21.8934524,23.6309524 24.2404762,21.2839286 C29.0857143,16.4389881 29.0857143,8.5547619 24.2407738,3.70982143 Z" id="Path"></path>
            </g>
        </g>
    </g>
</svg>