<?xml version="1.0" encoding="UTF-8"?>
<svg width="27px" height="25px" viewBox="0 0 27 25" version="1.1" xmlns="http://www.w3.org/2000/svg" xmlns:xlink="http://www.w3.org/1999/xlink">
    <!-- Generator: Sketch 59.1 (86144) - https://sketch.com -->
    <title>noun_chat_2439460</title>
    <desc>Created with Sketch.</desc>
    <g id="Page-1" stroke="none" stroke-width="1" fill="none" fill-rule="evenodd">
        <g id="single-page-git" transform="translate(-927.000000, -382.000000)" fill="#000000" fill-rule="nonzero">
            <g id="noun_chat_2439460" transform="translate(927.000000, 382.000000)">
                <path d="M17.3109884,0.0561395349 L9.43347965,0.0561395349 C5.11987703,0.0561395349 1.39305815,3.07093263 0.492266146,7.28943253 C-0.408525857,11.5079324 1.76182159,15.7821108 5.69926453,17.5438459 L5.69926453,24.0460785 C5.69772305,24.4162153 5.92502773,24.7488128 6.27043895,24.8818343 C6.37502806,24.9227111 6.48631717,24.9438605 6.59861047,24.9438605 C6.84906501,24.9438605 7.08787322,24.8380653 7.25665407,24.6530233 L13.0598198,18.3412791 L17.3109826,18.3412791 C22.3582705,18.338433 26.448397,14.2459995 26.448397,9.19871076 C26.448397,4.15142206 22.3582705,0.0589885065 17.3109826,0.0561395349 L17.3109884,0.0561395349 Z M17.3109884,16.8877878 L12.4216483,16.8877878 L7.15275291,22.6184215 L7.15275291,16.5591919 L6.68575581,16.3804884 C3.2227315,15.0555182 1.1984744,11.4479155 1.87217561,7.80179287 C2.54587683,4.15567028 5.72563305,1.50962791 9.43347384,1.50962791 L17.3109884,1.50962791 C21.5557038,1.51223786 24.995342,4.95399165 24.995342,9.19870785 C24.995342,13.443424 21.5557038,16.8851778 17.3109884,16.8877878 Z" id="Shape"></path>
                <path d="M19.0442093,7.88343023 C18.3177963,7.88343023 17.7289012,8.47229049 17.7289012,9.19870349 C17.7289012,9.92511649 18.317744,10.5140291 19.044157,10.5140291 C19.77057,10.5140291 20.3594663,9.9252037 20.3595,9.1987907 C20.3595,8.84994301 20.2209467,8.51537799 19.9742807,8.26869888 C19.7276147,8.02201977 19.393057,7.88343023 19.0442093,7.88343023 Z" id="Path"></path>
                <path d="M13.3722006,7.88343023 C12.6457895,7.88343023 12.0569012,8.47229626 12.0569012,9.19870737 C12.0569012,9.92511847 12.6457449,10.5140291 13.372156,10.5140291 C14.0985671,10.5140291 14.6874631,9.92520762 14.6875,9.19879651 C14.6875,8.4723619 14.0986352,7.88345753 13.3722006,7.88343023 Z" id="Path"></path>
                <path d="M7.7002907,7.88343023 C6.9738777,7.88343023 6.38498256,8.47229049 6.38498256,9.19870349 C6.38498256,9.92511649 6.97382538,10.5140291 7.70023837,10.5140291 C8.42665137,10.5140291 9.01554768,9.9252037 9.0155814,9.1987907 C9.0155814,8.47235843 8.42672296,7.88343023 7.7002907,7.88343023 L7.7002907,7.88343023 Z" id="Path"></path>
            </g>
        </g>
    </g>
</svg>